<svg width="980" height="551" xmlns="http://www.w3.org/2000/svg" xmlns:xlink="http://www.w3.org/1999/xlink">
<path fill="#ff595e" d="M 241.07 195.48 Q 241.07 195.48 248.40 194.28 255.74 193.09 284.16 194.10 312.59 195.12 349.20 199.03 385.82 202.93 409.59 209.27 433.36 215.60 445.53 227.73 457.70 239.86 458.23 254.10 458.76 268.34 449.36 277.77 439.95 287.20 432.18 290.67 424.41 294.14 416.95 292.47 409.50 290.79 403.57 277.55 397.64 264.30 401.02 250.68 404.39 237.07 418.99 230.73 433.58 224.39 447.60 227.63 461.63 230.87 470.22 244.03 478.82 257.19 467.44 272.49 456.07 287.79 416.98 299.04 377.89 310.30 341.06 313.65 304.24 317.01 287.84 318.00 271.44 319.00 266.00 318.45 260.56 317.89 260.08 317.87 259.60 317.84 259.14 317.69 258.68 317.55 258.27 317.30 257.85 317.05 257.51 316.71 257.17 316.37 256.92 315.96 256.67 315.54 256.53 315.08 256.39 314.62 256.36 314.14 256.33 313.66 256.41 313.19 256.50 312.71 256.70 312.27 256.90 311.83 257.19 311.45 257.49 311.07 257.87 310.78 258.25 310.48 258.69 310.28 259.13 310.08 259.60 310.00 260.08 309.91 269.23 308.51 278.39 307.12 294.16 309.72 309.93 312.33 317.45 316.95 324.97 321.56 325.43 321.70 325.89 321.84 326.31 322.09 326.72 322.33 327.07 322.67 327.41 323.00 327.67 323.41 327.92 323.82 328.07 324.28 328.22 324.74 328.25 325.22 328.29 325.70 328.21 326.18 328.12 326.65 327.93 327.09 327.74 327.54 327.45 327.92 327.15 328.30 326.78 328.60 326.40 328.91 325.96 329.11 325.53 329.31 325.05 329.40 324.58 329.50 324.10 329.47 323.62 329.45 321.78 332.85 319.94 336.25 313.62 337.14 307.31 338.04 302.89 333.70 298.47 329.37 297.93 322.81 297.39 316.24 301.13 312.14 304.88 308.03 311.13 306.51 317.38 304.99 321.95 307.88 326.52 310.77 326.52 310.78 326.52 310.78 326.52 310.79 326.52 310.79 322.67 311.81 318.83 312.83 314.30 313.50 309.78 314.16 307.11 316.09 304.44 318.03 304.65 321.52 304.85 325.02 307.10 328.16 309.35 331.29 312.21 330.82 315.07 330.36 320.02 325.96 324.97 321.56 325.43 321.70 325.89 321.84 326.30 322.09 326.72 322.33 327.07 322.67 327.41 323.00 327.66 323.41 327.92 323.82 328.07 324.28 328.22 324.74 328.25 325.22 328.29 325.70 328.21 326.18 328.12 326.65 327.93 327.09 327.74 327.54 327.45 327.92 327.15 328.30 326.78 328.60 326.40 328.91 325.96 329.11 325.53 329.31 325.05 329.40 324.58 329.50 324.10 329.47 323.62 329.45 316.00 324.80 308.38 320.14 293.92 317.58 279.46 315.02 270.01 316.46 260.56 317.89 260.08 317.87 259.60 317.84 259.14 317.69 258.68 317.55 258.27 317.30 257.85 317.05 257.51 316.71 257.17 316.37 256.92 315.96 256.67 315.54 256.53 315.08 256.39 314.62 256.36 314.14 256.33 313.66 256.41 313.19 256.50 312.71 256.70 312.27 256.90 311.83 257.19 311.45 257.49 311.07 257.87 310.78 258.25 310.48 258.69 310.28 259.13 310.08 259.60 310.00 260.08 309.91 265.52 310.46 270.97 311.02 287.25 310.03 303.52 309.04 339.64 305.81 375.76 302.59 413.16 292.47 450.56 282.34 461.50 268.71 472.43 255.07 465.52 246.48 458.61 237.88 447.13 234.88 435.65 231.88 422.91 236.57 410.17 241.26 407.64 251.73 405.11 262.21 409.38 273.62 413.65 285.02 417.88 285.88 422.12 286.73 428.36 284.01 434.61 281.28 443.11 273.90 451.61 266.52 451.50 255.27 451.39 244.01 441.10 233.53 430.81 223.05 407.88 216.97 384.95 210.89 348.63 207.00 312.30 203.11 283.58 202.08 254.86 201.04 247.96 198.27 241.07 195.50 241.07 195.49 Z"></path><path fill="#ff595e" d="M 407.12 171.34 Q 407.12 171.34 415.27 168.97 423.43 166.60 436.79 167.48 450.15 168.36 466.78 174.59 483.41 180.82 502.21 192.69 521.00 204.56 531.59 215.75 542.18 226.94 543.96 237.84 545.73 248.74 538.18 256.31 530.63 263.88 522.20 267.26 513.77 270.64 505.70 270.55 497.64 270.47 491.78 268.67 485.93 266.87 482.19 264.31 478.45 261.75 478.31 261.20 478.16 260.64 477.80 260.32 477.44 260.00 477.16 259.60 476.89 259.20 476.72 258.75 476.55 258.30 476.49 257.82 476.43 257.34 476.49 256.87 476.55 256.39 476.72 255.94 476.89 255.48 477.16 255.09 477.44 254.69 477.80 254.37 478.16 254.05 478.59 253.83 479.01 253.60 479.48 253.49 479.95 253.37 480.43 253.37 480.91 253.37 481.38 253.49 481.85 253.61 482.28 253.83 482.70 254.05 484.91 256.36 487.11 258.67 489.23 266.56 491.34 274.44 486.57 282.20 481.79 289.95 464.48 294.98 447.17 300.02 433.24 300.20 419.30 300.39 411.53 297.67 403.76 294.94 399.99 288.83 396.22 282.72 398.58 279.05 400.94 275.37 412.63 274.84 424.32 274.30 435.80 277.49 447.27 280.68 453.74 286.45 460.20 292.23 459.58 298.63 458.96 305.03 453.62 308.10 448.29 311.18 442.44 310.51 436.60 309.84 431.37 306.21 426.14 302.58 422.85 297.25 419.57 291.91 420.82 286.85 422.08 281.79 427.55 280.11 433.02 278.44 439.37 280.90 445.73 283.37 448.37 287.30 451.02 291.23 450.58 292.37 450.14 293.51 450.35 293.94 450.56 294.37 450.66 294.85 450.76 295.32 450.74 295.80 450.73 296.28 450.60 296.75 450.47 297.21 450.23 297.63 449.99 298.05 449.66 298.40 449.33 298.75 448.92 299.01 448.52 299.27 448.06 299.42 447.60 299.58 447.12 299.62 446.64 299.66 446.17 299.59 445.69 299.52 445.24 299.33 444.80 299.14 444.41 298.86 444.02 298.57 443.72 298.20 443.41 297.83 444.19 292.00 444.98 286.17 444.98 286.17 444.99 286.17 444.99 286.17 445.00 286.17 447.57 289.84 450.14 293.51 450.35 293.94 450.56 294.37 450.66 294.85 450.76 295.32 450.74 295.80 450.73 296.28 450.60 296.74 450.47 297.21 450.23 297.63 449.99 298.05 449.66 298.40 449.33 298.75 448.92 299.01 448.52 299.27 448.06 299.42 447.60 299.58 447.12 299.62 446.64 299.66 446.17 299.59 445.69 299.52 445.24 299.33 444.80 299.14 444.41 298.86 444.03 298.57 443.72 298.20 443.41 297.83 443.69 295.78 443.97 293.74 442.96 291.96 441.95 290.19 437.90 288.17 433.85 286.14 430.25 287.63 426.65 289.11 428.84 292.71 431.04 296.31 434.65 299.21 438.26 302.10 441.96 302.98 445.66 303.85 449.38 302.53 453.11 301.20 453.46 298.26 453.81 295.32 449.32 291.77 444.82 288.23 434.54 285.26 424.26 282.29 413.54 283.11 402.82 283.94 404.97 285.92 407.11 287.90 413.25 290.16 419.40 292.42 432.28 292.35 445.16 292.28 460.72 288.49 476.28 284.69 480.13 279.50 483.99 274.30 482.53 269.03 481.08 263.77 479.62 262.20 478.16 260.64 477.80 260.32 477.44 260.00 477.16 259.60 476.89 259.20 476.72 258.75 476.55 258.30 476.49 257.82 476.43 257.34 476.49 256.87 476.55 256.39 476.72 255.94 476.89 255.49 477.16 255.09 477.44 254.69 477.80 254.37 478.16 254.05 478.59 253.83 479.01 253.60 479.48 253.49 479.95 253.37 480.43 253.37 480.91 253.37 481.38 253.49 481.85 253.61 482.28 253.83 482.70 254.05 483.11 254.94 483.51 255.82 485.99 257.56 488.46 259.29 493.20 260.89 497.94 262.49 504.54 262.81 511.13 263.13 518.27 260.50 525.40 257.87 532.20 252.31 539.00 246.75 537.52 239.26 536.03 231.76 526.35 221.52 516.67 211.28 498.61 199.78 480.54 188.29 465.03 182.31 449.51 176.32 436.65 175.46 423.79 174.59 415.46 172.97 407.12 171.36 407.12 171.35 Z"></path>
</svg>